<?xml version="1.0" standalone="no"?>
<!DOCTYPE svg PUBLIC "-//W3C//DTD SVG 20010904//EN"
 "http://www.w3.org/TR/2001/REC-SVG-20010904/DTD/svg10.dtd">
<svg version="1.0" xmlns="http://www.w3.org/2000/svg"
 width="700.000000pt" height="700.000000pt" viewBox="0 0 700.000000 700.000000"
 preserveAspectRatio="xMidYMid meet">
<metadata>
Created by potrace 1.11, written by Peter Selinger 2001-2013
</metadata>
<g transform="translate(0.000000,700.000000) scale(0.100000,-0.100000)"
fill="#000000" stroke="none">
<path d="M2245 6205 c-22 -6 -54 -19 -72 -28 -33 -18 -111 -87 -97 -87 4 0 -1
-7 -12 -15 -10 -8 -15 -15 -11 -15 5 0 1 -7 -8 -16 -9 -9 -14 -22 -11 -30 3
-7 0 -14 -7 -17 -9 -3 -12 -150 -14 -607 -1 -331 -4 -608 -7 -615 -3 -8 -16
-12 -30 -11 -14 2 -26 0 -26 -3 0 -4 -10 -8 -22 -9 -37 -5 -63 -9 -63 -11 0
-3 -11 -5 -50 -14 -11 -3 -40 -11 -65 -18 -25 -7 -48 -13 -52 -15 -5 -1 -11
-3 -15 -4 -5 -1 -11 -2 -15 -1 -5 0 -8 -3 -8 -7 0 -4 -8 -8 -18 -9 -10 -1 -45
-14 -77 -29 -33 -15 -64 -28 -70 -28 -5 -1 -14 -7 -18 -13 -4 -7 -17 -13 -28
-13 -11 0 -22 -7 -25 -15 -4 -8 -10 -12 -15 -9 -5 3 -9 0 -9 -5 0 -6 -5 -11
-10 -11 -12 0 -32 -15 -57 -42 -9 -9 -20 -15 -25 -12 -4 3 -8 -2 -8 -10 0 -9
-4 -15 -8 -14 -7 3 -57 -45 -101 -97 -7 -9 -15 -14 -18 -11 -8 8 -6 711 2 737
4 13 20 34 34 46 28 25 32 25 274 24 84 -1 128 3 154 14 20 8 33 18 30 21 -3
4 0 13 8 21 18 17 19 63 4 97 -22 48 -56 55 -274 53 -110 -1 -207 -7 -215 -12
-8 -5 -23 -11 -34 -12 -35 -6 -104 -62 -142 -118 -53 -76 -51 -8 -50 -1545 l1
-1425 26 -55 c25 -53 79 -125 79 -106 0 5 11 -3 23 -18 13 -15 30 -29 38 -30
8 -2 28 -9 44 -17 25 -11 197 -13 960 -14 l930 0 -1 -313 c-1 -172 -3 -315 -6
-317 -3 -3 -131 -7 -286 -8 l-280 -2 -25 -27 c-34 -37 -42 -79 -22 -117 31
-61 -20 -58 1035 -58 697 0 969 3 979 11 8 6 16 9 19 6 9 -9 43 46 46 76 2 16
-3 41 -10 56 -28 54 -46 57 -338 56 -147 0 -270 2 -273 5 -3 4 -6 147 -7 319
l-1 313 905 -2 c873 -2 1000 2 1000 28 0 4 7 6 15 3 8 -4 17 1 21 10 3 9 10
14 14 11 10 -6 101 85 95 95 -3 4 2 11 11 14 9 4 14 13 10 22 -3 8 -2 13 3 10
18 -11 29 116 29 318 -1 167 2 210 13 217 8 5 10 9 4 9 -6 0 -5 3 1 8 14 9 49
74 46 85 -1 4 3 7 8 7 5 0 9 3 8 8 -1 4 4 21 11 37 7 17 14 37 16 45 2 8 4 15
5 15 2 0 11 38 12 53 1 6 5 12 9 12 4 0 6 8 4 18 -1 9 0 21 3 27 3 5 7 16 8
25 1 8 6 38 10 65 8 55 8 347 0 410 -6 46 -11 74 -21 130 -4 22 -8 47 -9 55
-1 9 -5 21 -10 28 -4 6 -5 16 -1 21 3 5 1 12 -4 16 -5 3 -8 14 -6 25 2 11 0
20 -6 20 -5 0 -9 13 -9 28 0 15 -5 33 -12 40 -7 7 -9 12 -6 12 4 0 0 16 -8 35
-8 19 -12 35 -9 35 3 0 0 10 -7 23 -7 12 -13 25 -14 30 -1 4 -3 10 -4 15 -1 4
-2 10 -1 15 0 4 -4 7 -10 7 -5 0 -7 5 -4 10 3 6 2 10 -3 10 -12 0 -11 -26 -14
515 l-3 490 -26 55 c-25 52 -112 150 -134 150 -5 0 -23 8 -40 17 -25 14 -64
17 -240 19 -220 2 -238 -1 -272 -45 -33 -43 -2 -134 52 -150 16 -6 106 -10
199 -10 163 0 226 -9 226 -33 0 -5 6 -6 13 -2 6 4 9 4 5 -1 -4 -4 -2 -17 4
-28 11 -21 16 -563 5 -574 -3 -3 -13 1 -21 10 -8 8 -12 17 -9 21 4 3 0 6 -9 6
-18 0 -51 34 -41 43 3 4 -1 7 -10 7 -9 0 -21 9 -27 20 -6 11 -17 20 -25 20 -8
0 -15 4 -15 10 0 9 -66 42 -73 37 -2 -1 -11 6 -21 16 -10 9 -21 15 -26 12 -5
-3 -11 -1 -15 5 -4 6 -11 8 -16 5 -5 -4 -9 -1 -9 6 0 7 -3 10 -6 6 -4 -3 -19
0 -35 9 -16 8 -29 12 -29 9 0 -3 -10 0 -22 7 -13 6 -30 13 -38 14 -21 4 -55
12 -55 14 0 1 -9 3 -20 5 -21 4 -78 15 -105 20 -8 2 -15 4 -15 5 0 1 -11 3
-25 5 -14 1 -38 5 -55 9 -16 3 -48 8 -70 12 -22 3 -41 7 -43 9 -2 1 -4 250 -5
551 l-2 549 -31 61 c-34 67 -73 116 -84 109 -5 -3 -11 2 -14 11 -3 8 -10 12
-16 9 -5 -3 -10 -2 -10 3 0 4 -17 17 -37 28 -37 18 -75 19 -1253 20 -915 1
-1225 -2 -1255 -11z m2449 -210 c14 -10 29 -28 32 -41 3 -13 9 -24 13 -24 5 0
6 -83 2 -151 -1 -9 -14 -22 -31 -29 -16 -7 -30 -17 -30 -23 0 -6 -3 -8 -6 -4
-7 7 -195 -91 -206 -107 -4 -6 -8 -8 -8 -3 0 9 -160 -73 -160 -82 0 -4 -10 -7
-22 -8 -11 -1 -24 -6 -27 -10 -6 -7 -91 -52 -343 -181 -53 -27 -94 -53 -90
-56 3 -4 -1 -4 -11 0 -9 3 -17 2 -17 -3 0 -5 -16 -15 -35 -22 -19 -7 -35 -17
-35 -22 0 -5 -3 -8 -7 -7 -15 4 -53 -13 -53 -23 0 -6 -4 -7 -10 -4 -5 3 -10 1
-10 -5 0 -6 -4 -9 -9 -5 -5 3 -17 -2 -25 -11 -9 -8 -16 -13 -16 -9 0 3 -13 -1
-30 -10 -68 -35 -131 -23 -274 54 -51 28 -96 48 -100 44 -3 -3 -6 -2 -6 4 0
12 -60 39 -75 35 -5 -2 -7 0 -2 4 4 4 -21 22 -55 39 -151 76 -424 218 -434
226 -6 5 -14 6 -17 2 -4 -3 -7 -2 -7 4 0 5 -20 18 -45 29 -25 10 -45 22 -45
26 0 4 -9 8 -20 8 -11 0 -20 5 -20 11 0 6 -6 9 -14 6 -8 -3 -16 -2 -18 2 -4
10 -158 93 -158 85 0 -3 -7 1 -15 9 -8 9 -20 17 -26 19 -8 3 -12 32 -12 84 1
112 23 150 94 162 22 4 562 6 1198 6 1084 -1 1160 -3 1185 -19z m-2364 -519
c14 -7 88 -46 165 -86 77 -40 146 -77 153 -83 6 -5 12 -6 12 -1 0 5 4 4 8 -1
12 -16 169 -95 176 -88 3 3 6 1 6 -5 0 -11 128 -78 143 -74 4 1 7 -2 7 -7 0
-9 40 -27 49 -22 2 2 7 -1 10 -6 9 -14 121 -74 121 -66 0 5 4 3 8 -3 13 -20
151 -82 207 -94 66 -14 145 -11 200 7 50 17 206 95 472 236 18 10 36 18 40 18
5 1 19 9 33 18 14 9 57 32 95 51 39 19 72 37 75 40 3 3 34 20 70 37 36 18 130
67 209 108 80 41 146 73 149 70 8 -7 6 -611 -2 -623 -4 -7 -19 -10 -34 -7
-125 23 -889 23 -1287 0 -230 -13 -295 -17 -335 -20 -25 -2 -83 -6 -130 -10
-136 -10 -308 -24 -365 -30 -16 -1 -64 -6 -105 -9 -41 -4 -93 -9 -115 -11
-112 -13 -145 -14 -146 -2 -1 17 -1 689 0 705 1 12 29 1 111 -42z m-1112
-2834 c14 -15 22 -20 17 -12 -8 14 -2 9 61 -50 15 -14 23 -18 19 -10 -6 11 -3
10 12 -2 11 -10 25 -18 31 -18 7 0 12 -5 12 -11 0 -5 5 -7 10 -4 6 3 10 2 10
-4 0 -10 38 -27 53 -23 4 1 7 -3 7 -9 0 -5 5 -7 10 -4 6 3 10 1 10 -5 0 -7 7
-10 15 -6 8 3 15 0 15 -6 0 -6 3 -8 7 -5 3 4 12 2 20 -4 7 -6 13 -8 13 -5 0 4
10 1 23 -6 12 -7 25 -11 29 -10 4 1 22 -5 41 -13 19 -8 47 -17 63 -20 39 -8
59 -13 59 -15 0 -2 38 -10 120 -25 22 -4 49 -10 60 -12 11 -2 31 -6 45 -9 14
-2 39 -6 55 -9 17 -3 53 -7 80 -10 28 -3 61 -8 75 -11 14 -3 54 -7 90 -10 35
-2 80 -7 100 -9 19 -3 71 -8 115 -10 44 -3 130 -7 190 -11 144 -8 914 -8 1080
0 72 3 175 8 230 11 55 3 145 8 200 11 55 3 141 7 190 10 50 3 113 7 140 9 28
2 84 6 125 9 119 8 396 29 530 41 25 2 81 7 125 10 99 8 140 13 140 15 0 3 15
5 65 13 14 2 31 7 38 11 7 4 17 4 22 1 6 -3 10 -1 10 5 0 6 4 9 9 5 5 -3 12
-1 16 5 4 6 10 8 15 5 5 -3 11 -1 15 5 4 6 11 8 16 5 5 -4 9 -1 9 5 0 6 5 8
10 5 6 -3 10 -1 10 6 0 7 3 9 7 6 3 -4 15 1 26 10 15 13 19 14 13 3 -5 -9 -2
-8 7 2 8 10 17 15 20 11 4 -3 9 1 13 10 3 9 11 14 17 11 8 -3 11 -34 10 -97
-3 -141 -8 -158 -63 -187 -35 -19 -4470 -19 -4506 0 -51 28 -55 47 -56 245 0
164 7 235 20 196 2 -7 16 -24 30 -39z m2473 -707 c0 -129 0 -323 0 -445 l-1
-105 -212 0 -213 0 2 314 c1 193 5 316 11 320 6 3 101 6 211 6 l201 0 1 -90z"/>
</g>
</svg>
